<svg width="118" height="32" viewBox="0 0 118 32" fill="none" xmlns="http://www.w3.org/2000/svg">
<g clip-path="url(#clip0_34_566)">
<path d="M52.1385 7.53442V10.8283H47.667V24.4111H43.5556V10.8283H39.0841V7.53442H52.1372H52.1385Z" fill="#00091A"/>
<path d="M58.6775 11.4889C59.3991 11.0648 60.2 10.8521 61.0815 10.8521V15.2026H59.9511C58.925 15.2026 58.1561 15.4237 57.643 15.863C57.13 16.3038 56.8742 17.0769 56.8742 18.1822V24.4084H52.7628V10.9939H56.8742V13.2296C57.3552 12.4927 57.9559 11.9115 58.6775 11.4875V11.4889Z" fill="#00091A"/>
<path d="M62.3913 8.96399C61.9352 8.53992 61.7058 8.01434 61.7058 7.39006C61.7058 6.76577 61.9338 6.21656 62.3913 5.7911C62.8487 5.36703 63.4369 5.1543 64.1585 5.1543C64.8801 5.1543 65.4446 5.36703 65.9006 5.7911C66.3581 6.21656 66.5861 6.74908 66.5861 7.39006C66.5861 8.03103 66.3581 8.53992 65.9006 8.96399C65.4446 9.38945 64.8634 9.60079 64.1585 9.60079C63.4535 9.60079 62.8487 9.38806 62.3913 8.96399ZM66.201 10.9954V24.4099H62.0896V10.9954H66.201Z" fill="#00091A"/>
<path d="M73.99 11.3804C74.7116 10.9953 75.5361 10.8034 76.4663 10.8034C77.5717 10.8034 78.5741 11.0843 79.4709 11.6446C80.3678 12.2063 81.0769 13.0072 81.5983 14.0486C82.1183 15.09 82.3797 16.301 82.3797 17.6789C82.3797 19.0568 82.1197 20.272 81.5983 21.3204C81.0769 22.3701 80.3678 23.1793 79.4709 23.748C78.5727 24.3167 77.5717 24.6017 76.4663 24.6017C75.5208 24.6017 74.6949 24.4126 73.99 24.0372C73.2851 23.6604 72.7317 23.1599 72.3313 22.5342V24.4098H68.2198V6.62109H72.3313V12.896C72.7164 12.2703 73.2684 11.7656 73.99 11.3818V11.3804ZM77.3436 15.2624C76.775 14.6771 76.0728 14.3851 75.24 14.3851C74.4071 14.3851 73.73 14.6812 73.1599 15.2749C72.5913 15.8686 72.3062 16.6778 72.3062 17.7026C72.3062 18.7273 72.5913 19.5379 73.1599 20.1302C73.7286 20.7239 74.4224 21.0201 75.24 21.0201C76.0575 21.0201 76.7541 20.7197 77.3311 20.1191C77.9081 19.5184 78.196 18.705 78.196 17.6789C78.196 16.6528 77.9109 15.8478 77.3422 15.2624H77.3436Z" fill="#00091A"/>
<path d="M89.3511 11.3804C90.0727 10.9953 90.8972 10.8034 91.8274 10.8034C92.9327 10.8034 93.9352 11.0843 94.832 11.6446C95.7288 12.2063 96.4379 13.0072 96.9593 14.0486C97.4793 15.09 97.7407 16.301 97.7407 17.6789C97.7407 19.0568 97.4807 20.272 96.9593 21.3204C96.4379 22.3701 95.7288 23.1793 94.832 23.748C93.9338 24.3167 92.9327 24.6017 91.8274 24.6017C90.8819 24.6017 90.056 24.4126 89.3511 24.0372C88.6462 23.6604 88.0928 23.1599 87.6923 22.5342V24.4098H83.5809V6.62109H87.6923V12.896C88.0775 12.2703 88.6295 11.7656 89.3511 11.3818V11.3804ZM92.7047 15.2624C92.136 14.6771 91.4339 14.3851 90.601 14.3851C89.7682 14.3851 89.0911 14.6812 88.521 15.2749C87.9523 15.8686 87.6673 16.6778 87.6673 17.7026C87.6673 18.7273 87.9523 19.5379 88.521 20.1302C89.0897 20.7239 89.7835 21.0201 90.601 21.0201C91.4186 21.0201 92.1152 20.7197 92.6922 20.1191C93.2692 19.5184 93.557 18.705 93.557 17.6789C93.557 16.6528 93.272 15.8478 92.7033 15.2624H92.7047Z" fill="#00091A"/>
<path d="M103.054 6.62109V24.4098H98.9424V6.62109H103.054Z" fill="#00091A"/>
<path d="M117.645 18.6882H108.342C108.406 19.521 108.675 20.1592 109.147 20.6C109.62 21.0407 110.201 21.2604 110.889 21.2604C111.914 21.2604 112.629 20.828 113.029 19.9618H117.405C117.18 20.8433 116.775 21.6372 116.191 22.3421C115.606 23.0471 114.873 23.6004 113.991 24.0009C113.11 24.4013 112.124 24.6015 111.034 24.6015C109.72 24.6015 108.549 24.3207 107.525 23.7603C106.499 23.2 105.698 22.3977 105.121 21.3563C104.544 20.3149 104.256 19.0969 104.256 17.7024C104.256 16.3078 104.541 15.0898 105.11 14.0484C105.678 13.007 106.475 12.2061 107.501 11.6444C108.527 11.0841 109.705 10.8032 111.035 10.8032C112.366 10.8032 113.488 11.0757 114.498 11.6208C115.507 12.1658 116.297 12.943 116.865 13.9525C117.434 14.9619 117.719 16.1396 117.719 17.4869C117.719 17.872 117.695 18.2724 117.647 18.6882H117.645ZM113.51 16.4051C113.51 15.7002 113.27 15.1399 112.789 14.7228C112.308 14.3056 111.707 14.0971 110.985 14.0971C110.264 14.0971 109.715 14.2973 109.243 14.6977C108.77 15.0982 108.477 15.6682 108.366 16.4051H113.51Z" fill="#00091A"/>
<path style="fill: #3263e9;" d="M24.9354 7.0645C21.8084 8.10869 17.9111 10.6656 14.2877 14.289C10.6643 17.9124 8.1074 21.8083 7.06599 24.9367C4.76488 25.7028 2.8795 25.6499 1.82419 24.596C0.319779 23.0916 0.852301 19.8937 2.90314 16.2091C5.1667 16.0034 8.38686 14.1903 11.29 11.2885C14.1918 8.38677 16.0021 5.16661 16.2106 2.90165C19.8938 0.850813 23.0889 0.3169 24.5947 1.8227C25.6486 2.87662 25.7043 4.762 24.9354 7.0645ZM30.1772 7.40515C29.1233 6.35123 27.2379 6.29839 24.9354 7.0645C23.894 10.1915 21.337 14.0888 17.7137 17.7122C14.0903 21.3355 10.1944 23.8953 7.06599 24.9367C6.29988 27.2378 6.35271 29.1232 7.40663 30.1785C8.91105 31.6829 12.1062 31.1504 15.7907 29.0995C15.9979 26.836 17.811 23.6158 20.7141 20.7126C23.6159 17.8109 26.8347 16.0006 29.0982 15.792C31.1491 12.1089 31.683 8.91095 30.1772 7.40515ZM31.3534 16.4205C30.8348 15.9019 30.0506 15.7044 29.0968 15.792C27.7621 18.196 25.7793 20.81 23.2947 23.2946C20.8101 25.7806 18.1961 27.7647 15.7893 29.0995C15.7017 30.0506 15.8992 30.8347 16.4178 31.3534C18.1711 33.1066 22.936 31.1851 27.0599 27.0612C31.181 22.9373 33.1054 18.1738 31.3521 16.4219L31.3534 16.4205ZM15.5836 0.649205C13.8303 -1.10409 9.06538 0.817443 4.94424 4.94136C0.818932 9.06528 -1.10399 13.8274 0.647913 15.5835C1.16653 16.1021 1.95072 16.2995 2.90453 16.2091C4.23931 13.8051 6.22202 11.1912 8.70666 8.70656C11.1913 6.22192 13.8052 4.23643 16.212 2.90165C16.2996 1.95062 16.1022 1.16643 15.5836 0.647814V0.649205Z" fill="#3263E9"/>
</g>
<defs>
<clipPath id="clip0_34_566">
<rect width="117.718" height="32" fill="white"/>
</clipPath>
</defs>
</svg>
