<svg width="107" height="107" viewBox="0 0 107 107" fill="none" xmlns="http://www.w3.org/2000/svg">
<path d="M89.2442 89.252C74.2678 104.22 60.4168 109.329 55.0184 103.93C53.058 101.97 52.4809 98.8867 53.2701 95.0394C40.3761 102.937 29.9532 104.536 24.9221 99.5046C21.4114 95.9938 21.1284 89.8404 23.9835 82.0479C16.1912 84.9031 10.038 84.62 6.51874 81.1092C1.4876 76.078 3.08678 65.6548 10.9923 52.7519C7.14518 53.5368 4.06208 52.964 2.10173 51.0036C-3.2967 45.605 1.80324 31.7493 16.7796 16.7853C31.7474 1.8042 45.6027 -3.29589 51.0012 2.1027C52.9615 4.06311 53.5386 7.14203 52.7494 10.985C65.6434 3.08778 76.0663 1.48855 81.0974 6.51983C84.6081 10.0306 84.8912 16.1926 82.0275 23.9851C89.8198 21.1299 95.9816 21.4129 99.4923 24.9237C104.523 29.955 102.933 40.3782 95.0357 53.2726C98.8744 52.4876 101.957 53.0605 103.918 55.0209C109.316 60.4195 104.216 74.2752 89.2399 89.2477L89.2442 89.252Z" fill="#3263E9"/>
<g style="mix-blend-mode:screen" opacity="0.5">
<path d="M104.442 67.9658C103.976 64.9382 101.92 57.5719 87.6521 63.7052C87.635 63.7052 87.618 63.7137 87.6009 63.7222C105.754 31.4865 86.1168 29.7873 74.6107 34.4352C81.8739 14.6275 67.8206 7.55339 45.3175 21.4439C48.103 7.99353 33.2569 7.3714 20.9781 12.8005C34.2932 0.932263 46.1111 -2.78892 51.001 2.10135C52.9612 4.06173 53.5382 7.1406 52.7491 10.9835C65.6422 3.08641 76.0643 1.48719 81.0951 6.5184C84.6056 10.0291 84.8886 16.191 82.0252 23.9834C89.8169 21.1282 95.9782 21.4113 99.4887 24.922C104.519 29.9532 102.929 40.3763 95.0324 53.2705C98.8708 52.4855 101.954 53.0583 103.914 55.0187C106.523 57.6283 106.678 62.223 104.442 67.9616L104.442 67.9658Z" fill="#3263E9"/>
</g>
<g style="mix-blend-mode:multiply" opacity="0.5">
<path d="M102.058 72.965C99.2538 77.9519 94.9724 83.5193 89.2392 89.2529C74.2639 104.221 60.4138 109.33 55.0157 103.931C53.0555 101.971 52.4784 98.8875 53.2676 95.0403C40.3745 102.937 29.9523 104.537 24.9215 99.5054C21.411 95.9947 21.128 89.8414 23.9829 82.049C16.1912 84.9041 10.0384 84.6211 6.51939 81.1103C1.48859 76.0791 3.08767 65.656 10.9927 52.7533C7.14579 53.5382 4.06291 52.9654 2.10269 51.005C-2.58218 46.3198 0.639281 35.2565 11.3752 22.6234C6.85941 30.6759 6.19464 37.2219 9.52573 40.5533C11.4774 42.5051 14.5389 43.0822 18.3602 42.3186C18.3773 42.3186 18.3944 42.3101 18.4115 42.3015C15.6882 46.7462 6.34925 63.0519 13.9467 70.65C19.507 76.2108 30.202 72.041 31.4017 71.5886C24.1385 91.3963 38.2003 98.4704 60.6949 84.58C56.1818 106.399 90.4393 90.8844 102.067 72.965L102.058 72.965Z" fill="#3263E9"/>
</g>
<path d="M99.5142 50.9748C99.5449 54.8179 98.6108 59.6942 97.019 64.0195C94.9109 69.7325 90.5645 70.9358 83.2889 71.1649L82.3453 71.1946C75.6077 71.411 69.2373 71.6233 66.3672 67.5063C64.4068 64.6748 62.7153 61.1218 61.724 57.7653C60.6729 54.1269 60.4716 50.8773 61.1414 48.3666C61.551 46.8338 62.6652 45.6213 64.5522 44.6651C68.6294 42.5907 75.6274 42.054 82.5785 41.7864C84.1455 41.7269 85.5289 41.6973 86.7629 41.6976C88.8252 41.698 90.4733 41.7837 91.8781 41.9505C91.8994 41.9505 91.9208 41.9548 91.9421 41.9548C95.3324 42.3612 97.3437 43.3266 98.2662 44.9751C99.065 46.4313 99.4838 48.4469 99.5142 50.9748Z" fill="white"/>
<path d="M44.9705 57.7618C43.9805 61.1222 42.2904 64.6746 40.3355 67.501C37.4585 71.6211 31.0922 71.4063 24.3502 71.1872L23.4066 71.1571C16.1309 70.9251 11.7883 69.7201 9.67794 64.0062C8.08446 59.6803 7.14841 54.8036 7.17326 50.9605C7.20265 48.4326 7.62495 46.4172 8.41456 44.9698C9.34077 43.3132 11.3516 42.3528 14.7375 41.9436C14.7631 41.9436 14.7844 41.9436 14.81 41.9393C17.0602 41.6708 19.9251 41.6201 24.1053 41.7789C31.0607 42.0493 38.0547 42.5888 42.137 44.6691C44.0244 45.6217 45.1391 46.8347 45.5493 48.3677C46.2201 50.8787 46.0201 54.1282 44.9705 57.7618Z" fill="white"/>
<path d="M100.816 43.5697C98.9406 40.2132 95.021 39.3883 92.2371 39.059C92.2158 39.059 92.1944 39.0547 92.1731 39.0547C89.7735 38.7725 86.7805 38.7206 82.4683 38.8778C75.2143 39.1625 67.875 39.7375 63.2941 42.0424C62.3207 42.4393 61.4797 42.849 60.7369 43.2118C58.5468 44.2789 56.9629 45.0471 53.3423 45.0465C49.7217 45.0458 48.1375 44.2726 45.947 43.209C45.2083 42.8502 44.3671 42.4401 43.3978 42.0428C38.8161 39.7319 31.4723 39.1541 24.2097 38.8666C19.9059 38.7078 16.9129 38.7585 14.5177 39.0398C14.4921 39.0398 14.4708 39.0441 14.4452 39.0441C11.6615 39.3723 7.74212 40.1956 5.86415 43.56C4.83127 45.4385 4.29378 47.9192 4.25593 50.9295L4.25593 50.938C4.22686 55.1737 5.20558 60.3063 6.93994 65.0121C9.88749 72.9845 16.6421 73.8569 23.3113 74.0674L24.2506 74.0974C25.7364 74.1447 27.2351 74.1962 28.7081 74.1965C34.3909 74.1976 39.7149 73.4642 42.7199 69.1607C44.837 66.1039 46.6637 62.2699 47.7432 58.6322L48.0206 57.8722C49.591 53.5599 50.5426 51.3098 53.3392 51.3104C56.1358 51.3109 57.0884 53.5613 58.6604 57.8742L58.9338 58.6258C60.0104 62.2639 61.8428 66.1029 63.9697 69.1691C66.9677 73.4694 72.2963 74.2049 77.9792 74.206C79.4522 74.2062 80.9508 74.1553 82.4366 74.1086L83.3759 74.0789C90.045 73.871 96.7993 73.0012 99.7438 65.0299C101.476 60.3248 102.453 55.1926 102.422 50.9569L102.422 50.9483C102.383 47.938 101.845 45.4571 100.807 43.5697L100.816 43.5697ZM40.3329 67.4993C37.456 71.6192 31.09 71.4044 24.3482 71.1854L23.4047 71.1553C16.1292 70.9233 11.7868 69.7184 9.67655 64.0049C8.08316 59.6792 7.14719 54.8028 7.17207 50.9599C7.20147 48.4321 7.62377 46.4168 8.41337 44.9695C9.33955 43.313 11.3503 42.3526 14.7361 41.9434C14.7617 41.9434 14.783 41.9434 14.8086 41.9391C17.0587 41.6705 19.9235 41.6199 24.1035 41.7786C31.0587 42.049 38.0524 42.5883 42.1345 44.6685C42.553 44.8779 42.9245 45.1042 43.2661 45.3391C44.4746 46.1763 45.2262 47.1713 45.5467 48.3669C46.2175 50.8735 46.0174 54.1228 44.9678 57.7606C43.9779 61.1208 42.2878 64.673 40.3329 67.4993ZM97.0196 64.0217C94.9115 69.7344 90.5653 70.9376 83.29 71.1668L82.3464 71.1965C75.609 71.413 69.2388 71.6253 66.3689 67.5085C64.4086 64.6772 62.7171 61.1244 61.7259 57.7723C61.5294 57.0848 61.3713 56.4187 61.2303 55.7611C60.6363 52.9386 60.5974 50.4108 61.1392 48.3699C61.1819 48.2119 61.2373 48.0625 61.2928 47.9088C61.3056 47.8746 61.3142 47.8405 61.327 47.8063C61.8391 46.534 62.902 45.5009 64.5499 44.6686C64.5499 44.6686 64.5542 44.6686 64.5584 44.6643C68.6355 42.5942 75.629 42.0575 82.5756 41.7899C84.1425 41.7304 85.5258 41.7008 86.7597 41.701C88.822 41.7014 90.47 41.7871 91.8748 41.9539C91.8961 41.9539 91.9175 41.9582 91.9388 41.9582C95.3289 42.3645 97.3401 43.3299 98.2627 44.9782C99.0613 46.4344 99.4801 48.4499 99.5105 50.9777C99.5411 54.8206 98.607 59.6966 97.0153 64.0217L97.0196 64.0217Z" fill="black"/>
<path d="M58.4382 66.9268C58.4388 69.7359 56.1595 72.0151 53.3505 72.0145C50.5414 72.014 48.2613 69.7339 48.2607 66.9248L58.4339 66.9268L58.4382 66.9268Z" fill="black"/>
<path d="M38.5597 56.3969C38.5604 59.5859 36.2855 62.1682 33.4764 62.1676C30.6674 62.1671 28.3914 59.5838 28.3908 56.3948C28.3902 53.2058 30.6651 50.6235 33.4741 50.6241C34.3407 50.6242 35.1604 50.872 35.8735 51.3076C35.2886 51.3929 34.8447 51.8965 34.8449 52.507C34.845 53.1815 35.3873 53.7281 36.0618 53.7282C36.7363 53.7283 37.2485 53.2161 37.2782 52.5715C38.0768 53.5877 38.5594 54.9283 38.5597 56.3969Z" fill="black"/>
<path d="M78.3019 56.4027C78.3026 59.5917 76.0277 62.1741 73.2186 62.1735C70.4096 62.1729 68.1336 59.5897 68.133 56.4007C68.1324 53.2117 70.4073 50.6294 73.2163 50.6299C74.5653 50.6302 75.7907 51.2238 76.6959 52.1974C76.0641 52.2442 75.569 52.7692 75.5691 53.4138C75.5692 54.0585 76.1115 54.6306 76.786 54.6308C77.2428 54.6309 77.6398 54.3791 77.8447 54.012C78.1394 54.742 78.3017 55.5489 78.3019 56.4027Z" fill="black"/>
<path d="M32.3639 32.4499C35.3352 32.4334 38.3322 32.9249 41.0646 34.1207C42.1661 34.6418 41.8292 36.3195 40.6296 36.3875C38.3841 36.5024 36.1897 36.0622 34.038 35.4684C32.9664 35.084 30.7037 34.7847 31.3352 33.1455C31.5272 32.7272 31.9327 32.4711 32.3596 32.4499L32.3639 32.4499Z" fill="black"/>
<path d="M74.7753 35.8357C72.7861 36.3903 70.7241 36.4412 68.6792 36.3127C68.0004 36.2613 67.3173 36.1844 66.6385 36.0263C65.4474 35.7528 65.4257 34.0367 66.5826 33.7167C69.2421 33.0726 72.0383 32.9664 74.7237 33.5261C75.3641 33.6885 75.7569 34.3375 75.5948 34.9778C75.4882 35.4004 75.1681 35.7163 74.7796 35.8315L74.7753 35.8357Z" fill="black"/>
</svg>
